<?xml version="1.0" encoding="UTF-8" standalone="no"?>
<svg
   xmlns:dc="http://purl.org/dc/elements/1.1/"
   xmlns:cc="http://creativecommons.org/ns#"
   xmlns:rdf="http://www.w3.org/1999/02/22-rdf-syntax-ns#"
   xmlns:svg="http://www.w3.org/2000/svg"
   xmlns="http://www.w3.org/2000/svg"
   xmlns:xlink="http://www.w3.org/1999/xlink"
   xmlns:sodipodi="http://sodipodi.sourceforge.net/DTD/sodipodi-0.dtd"
   xmlns:inkscape="http://www.inkscape.org/namespaces/inkscape"
   version="1.0"
   id="svg2"
   height="48"
   width="47.999992"
   sodipodi:docname="migasfree-bw.svg"
   inkscape:version="0.92.3 (2405546, 2018-03-11)">
  <sodipodi:namedview
     pagecolor="#ffffff"
     bordercolor="#666666"
     borderopacity="1"
     objecttolerance="10"
     gridtolerance="10"
     guidetolerance="10"
     inkscape:pageopacity="0"
     inkscape:pageshadow="2"
     inkscape:window-width="1848"
     inkscape:window-height="931"
     id="namedview24"
     showgrid="false"
     inkscape:zoom="4.9166667"
     inkscape:cx="-27.204933"
     inkscape:cy="9.4722674"
     inkscape:window-x="0"
     inkscape:window-y="28"
     inkscape:window-maximized="1"
     inkscape:current-layer="layer1" />
  <defs
     id="defs4">
    <radialGradient
       r="8.0625"
       fy="19.03125"
       fx="11.25"
       cy="19.03125"
       cx="11.25"
       gradientTransform="matrix(1,0,0,0.282946,0,13.64644)"
       gradientUnits="userSpaceOnUse"
       id="radialGradient4354"
       xlink:href="#linearGradient5105" />
    <linearGradient
       id="linearGradient5105">
      <stop
         id="stop5107"
         offset="0"
         style="stop-color:black;stop-opacity:1;" />
      <stop
         id="stop5109"
         offset="1"
         style="stop-color:black;stop-opacity:0;" />
    </linearGradient>
    <linearGradient
       gradientTransform="matrix(1.004639,0,0,1,-15.037685,0.047681)"
       gradientUnits="userSpaceOnUse"
       y2="40.231434"
       x2="34.744495"
       y1="10.445395"
       x1="17.498823"
       id="linearGradient5315"
       xlink:href="#linearGradient5113" />
    <linearGradient
       id="linearGradient5113">
      <stop
         id="stop5115"
         offset="0"
         style="stop-color:white;stop-opacity:1;" />
      <stop
         id="stop5117"
         offset="1"
         style="stop-color:white;stop-opacity:0;" />
    </linearGradient>
  </defs>
  <metadata
     id="metadata7">
    <rdf:RDF>
      <cc:Work
         rdf:about="">
        <dc:format>image/svg+xml</dc:format>
        <dc:type
           rdf:resource="http://purl.org/dc/dcmitype/StillImage" />
        <dc:title></dc:title>
      </cc:Work>
    </rdf:RDF>
  </metadata>
  <g
     transform="translate(-409.93872,-324.46271)"
     id="layer1">
    <path
       inkscape:connector-curvature="0"
       style="fill:none;stroke:#999999;stroke-width:7.01134396;stroke-linecap:round;stroke-linejoin:round;stroke-miterlimit:4;stroke-dasharray:none;stroke-opacity:1"
       d="m 420.95063,362.25892 c 3.00942,1.42991 35.09048,-2.54782 33.41943,-3.85295 0.0453,-9.43377 -12.75255,-24.60846 -12.75255,-24.60846 -17.11358,0.38524 -27.47275,4.49224 -27.47275,5.87201 -1.0808,0 -2.12634,6.12161 6.8342,22.64293"
       id="path7004" />
    <path
       inkscape:connector-curvature="0"
       id="path4849"
       d="m 417.25543,350.67385 c 0.0584,0 0.11685,0 0,0 z"
       style="fill:none;fill-rule:evenodd;stroke:#000000;stroke-width:0.1752836px;stroke-linecap:butt;stroke-linejoin:miter;stroke-opacity:1" />
    <path
       inkscape:connector-curvature="0"
       id="path3180"
       d="m 431.93777,331.97699 c -1.12178,0.0938 -2.27791,0.71708 -3.08828,2.12397 -0.72632,1.369 -0.8485,3.44301 -0.54524,5.17454 0.37558,2.21816 1.46477,4.1256 2.79796,4.50462 1.25181,0.3766 2.54802,-0.22677 3.62399,-1.35302 0.8114,-0.84107 1.58243,-2.05308 1.82794,-3.69818 0.31833,-1.99565 -0.27012,-4.22967 -1.2718,-5.28674 -0.95305,-1.04873 -2.10048,-1.42047 -3.21336,-1.4708 -0.0437,0.002 -0.0875,0.004 -0.13121,0.006 z"
       style="fill:#f9f9f9;fill-opacity:1;fill-rule:nonzero;stroke:#999999;stroke-width:0.8;stroke-linecap:round;stroke-linejoin:round;stroke-miterlimit:4;stroke-dasharray:none;stroke-dashoffset:200;stroke-opacity:1" />
    <path
       inkscape:connector-curvature="0"
       d="m 441.66163,343.5427 a 2.9047667,2.5773727 0 0 1 -2.90477,2.57737 2.9047667,2.5773727 0 0 1 -2.90477,-2.57737 2.9047667,2.5773727 0 0 1 2.90477,-2.57738 2.9047667,2.5773727 0 0 1 2.90477,2.57738 z"
       id="path3190"
       style="fill:#f9f9f9;fill-opacity:1;fill-rule:nonzero;stroke:#999999;stroke-width:0.8;stroke-opacity:1;stroke-miterlimit:4;stroke-dasharray:none" />
  </g>
</svg>
